<?xml version="1.0" encoding="UTF-8"?>
<!DOCTYPE svg PUBLIC "-//W3C//DTD SVG 1.1//EN" "http://www.w3.org/Graphics/SVG/1.1/DTD/svg11.dtd">
<!-- Creator: CorelDRAW 2020 (64-Bit Versión de evaluación) -->
<svg xmlns="http://www.w3.org/2000/svg" xml:space="preserve" width="215.9mm" height="279.4mm" version="1.1" style="shape-rendering:geometricPrecision; text-rendering:geometricPrecision; image-rendering:optimizeQuality; fill-rule:evenodd; clip-rule:evenodd"
viewBox="0 0 21590 27940"
 xmlns:xlink="http://www.w3.org/1999/xlink"
 xmlns:xodm="http://www.corel.com/coreldraw/odm/2003">
 <defs>
  <style type="text/css">
   <![CDATA[
    .str1 {stroke:#009DEA;stroke-width:20;stroke-miterlimit:22.9256}
    .str0 {stroke:#02EDC4;stroke-width:20;stroke-miterlimit:22.9256}
    .str2 {stroke:#433A55;stroke-width:20;stroke-miterlimit:22.9256}
    .fil1 {fill:#009DEA}
    .fil2 {fill:#433A55}
    .fil0 {fill:#02EDC4}
   ]]>
  </style>
    <clipPath id="id0">
     <path d="M8123.11 10780.34l1349.22 0 853.85 892.87 -1349.22 0 -853.85 -892.87z"/>
    </clipPath>
 </defs>
 <g id="Capa_x0020_1">
  <metadata id="CorelCorpID_0Corel-Layer"/>
  <g id="_2910753139344">
   <g style="clip-path:url(#id0)">
    <image x="8123.11" y="10780.34" width="2203.07" height="892.87" xlink:href="Sin título-1_Images\Sin título-1_ImgID1.png"/>
   </g>
  </g>
  <polygon class="fil0 str0" points="9455.99,11572.46 8336.49,11572.46 8336.49,10893.36 9455.99,10893.36 "/>
  <polygon class="fil1 str1" points="12842.67,12148.97 9455.99,12148.97 8336.49,12148.97 8336.49,11572.46 9455.99,11572.46 9455.99,11157.94 12842.67,11157.94 "/>
  <polygon class="fil2 str2" points="7860.24,10226.33 8336.49,10226.33 8336.49,12148.97 12472.82,12148.97 12904.97,12148.97 12904.97,13577.72 12472.82,13577.72 12472.82,12801.61 8336.49,12801.61 8336.49,13577.72 7860.24,13577.72 "/>
 </g>
</svg>
