<svg xmlns="http://www.w3.org/2000/svg" xmlns:xlink="http://www.w3.org/1999/xlink" width="500" zoomAndPan="magnify" viewBox="0 0 375 374.999991" height="500" preserveAspectRatio="xMidYMid meet" version="1.0"><defs><g/><clipPath id="f1ac3decb6"><path d="M 22.066406 144.910156 L 91 144.910156 L 91 219.910156 L 22.066406 219.910156 Z M 22.066406 144.910156 " clip-rule="nonzero"/></clipPath></defs><path fill="#00876e" d="M 51.804688 192.242188 C 51.804688 194.25 50.175781 195.875 48.167969 195.875 C 46.160156 195.875 44.535156 194.25 44.535156 192.242188 L 44.535156 186.160156 C 44.535156 184.152344 46.160156 182.527344 48.167969 182.527344 C 50.175781 182.527344 51.804688 184.152344 51.804688 186.160156 Z M 68.507812 186.160156 C 68.507812 184.152344 66.878906 182.527344 64.871094 182.527344 C 62.863281 182.527344 61.234375 184.152344 61.234375 186.160156 L 61.234375 192.242188 C 61.234375 194.25 62.863281 195.875 64.871094 195.875 C 66.878906 195.875 68.507812 194.25 68.507812 192.242188 Z M 68.507812 186.160156 " fill-opacity="1" fill-rule="nonzero"/><g clip-path="url(#f1ac3decb6)"><path fill="#272e35" d="M 90.710938 191.609375 L 90.710938 200.183594 C 90.710938 203.367188 88.128906 205.949219 84.945312 205.949219 C 83.730469 205.949219 82.601562 205.570312 81.675781 204.925781 C 76.90625 213.960938 67.421875 220.132812 56.519531 220.132812 C 45.558594 220.132812 36.035156 213.894531 31.292969 204.785156 C 30.328125 205.511719 29.128906 205.949219 27.828125 205.949219 C 24.644531 205.949219 22.066406 203.367188 22.066406 200.183594 L 22.066406 191.609375 C 22.066406 188.425781 24.644531 185.84375 27.828125 185.84375 C 28.117188 185.84375 28.402344 185.875 28.679688 185.914062 C 30.40625 177.519531 35.84375 170.296875 43.71875 166.316406 L 47.261719 173.332031 C 40.285156 176.855469 35.953125 183.894531 35.953125 191.707031 C 35.953125 203.046875 45.179688 212.273438 56.519531 212.273438 C 67.859375 212.273438 77.085938 203.046875 77.085938 191.707031 C 77.085938 181.320312 69.347656 172.714844 59.335938 171.335938 C 59.335938 171.335938 59.335938 171.332031 59.335938 171.332031 C 59.335938 171.332031 59.320312 171.332031 59.296875 171.332031 C 59.011719 171.292969 58.726562 171.257812 58.4375 171.230469 C 56.601562 170.882812 52.589844 169.320312 52.589844 162.296875 L 52.589844 156.707031 L 46.167969 156.707031 L 56.519531 144.917969 L 66.867188 156.710938 L 60.449219 156.710938 L 60.449219 161.09375 C 60.53125 162.011719 60.929688 163.417969 62.519531 163.921875 C 62.746094 163.972656 62.972656 164.019531 63.199219 164.074219 C 63.214844 164.078125 63.230469 164.082031 63.246094 164.085938 C 73.824219 166.664062 82.101562 175.171875 84.34375 185.878906 C 84.542969 185.859375 84.742188 185.847656 84.949219 185.847656 C 88.128906 185.84375 90.710938 188.425781 90.710938 191.609375 Z M 90.710938 191.609375 " fill-opacity="1" fill-rule="nonzero"/></g><g fill="#00876e" fill-opacity="1"><g transform="translate(99.041303, 198.081303)"><g><path d="M 13.890625 -12.140625 C 15.171875 -12.140625 16.148438 -11.6875 16.828125 -10.78125 C 17.460938 -9.894531 17.78125 -8.644531 17.78125 -7.03125 L 17.78125 -4.859375 C 17.78125 -3.441406 17.46875 -2.28125 16.84375 -1.375 C 16.207031 -0.457031 15.207031 0 13.84375 0 L 2.71875 0 C 2.601562 0 2.453125 -0.0390625 2.265625 -0.125 C 2.085938 -0.21875 2 -0.457031 2 -0.84375 L 2 -2.8125 C 2 -3.1875 2.085938 -3.421875 2.265625 -3.515625 C 2.453125 -3.609375 2.601562 -3.65625 2.71875 -3.65625 L 13.25 -3.65625 C 13.457031 -3.65625 13.609375 -3.691406 13.703125 -3.765625 C 13.796875 -3.835938 13.867188 -3.90625 13.921875 -3.96875 C 14.066406 -4.21875 14.140625 -4.566406 14.140625 -5.015625 L 14.140625 -7.125 C 14.140625 -7.738281 14.039062 -8.117188 13.84375 -8.265625 C 13.644531 -8.410156 13.453125 -8.484375 13.265625 -8.484375 L 5.875 -8.484375 C 5.363281 -8.484375 4.835938 -8.546875 4.296875 -8.671875 C 3.765625 -8.804688 3.3125 -9.128906 2.9375 -9.640625 C 2.289062 -10.546875 1.96875 -11.863281 1.96875 -13.59375 L 1.96875 -15.46875 C 1.96875 -16.914062 2.289062 -18.082031 2.9375 -18.96875 C 3.570312 -19.875 4.566406 -20.328125 5.921875 -20.328125 L 16.5625 -20.328125 C 16.65625 -20.328125 16.789062 -20.28125 16.96875 -20.1875 C 17.15625 -20.101562 17.25 -19.867188 17.25 -19.484375 L 17.25 -17.515625 C 17.25 -17.140625 17.15625 -16.90625 16.96875 -16.8125 C 16.789062 -16.71875 16.65625 -16.671875 16.5625 -16.671875 L 6.515625 -16.671875 C 6.296875 -16.671875 6.140625 -16.640625 6.046875 -16.578125 C 5.960938 -16.515625 5.894531 -16.441406 5.84375 -16.359375 C 5.71875 -16.097656 5.65625 -15.753906 5.65625 -15.328125 L 5.65625 -13.5 C 5.65625 -12.882812 5.75 -12.503906 5.9375 -12.359375 C 6.125 -12.210938 6.304688 -12.140625 6.484375 -12.140625 Z M 13.890625 -12.140625 "/></g></g></g><g fill="#00876e" fill-opacity="1"><g transform="translate(115.921013, 198.081303)"><g><path d="M 22.578125 -20.328125 C 23.398438 -20.328125 23.957031 -20.066406 24.25 -19.546875 C 24.507812 -19.078125 24.640625 -18.273438 24.640625 -17.140625 L 24.640625 -0.84375 C 24.640625 -0.457031 24.550781 -0.210938 24.375 -0.109375 C 24.195312 -0.015625 24.050781 0.03125 23.9375 0.03125 L 21.8125 0.03125 C 21.707031 0.03125 21.566406 -0.015625 21.390625 -0.109375 C 21.210938 -0.210938 21.125 -0.457031 21.125 -0.84375 L 21.125 -15.671875 C 21.125 -15.679688 21.125 -15.691406 21.125 -15.703125 C 21.125 -15.710938 21.125 -15.71875 21.125 -15.71875 L 21 -15.71875 C 20.96875 -15.71875 20.953125 -15.703125 20.953125 -15.671875 L 16.703125 -5.203125 C 16.535156 -4.691406 16.363281 -4.25 16.1875 -3.875 C 16.101562 -3.695312 16.003906 -3.53125 15.890625 -3.375 C 15.785156 -3.226562 15.6875 -3.085938 15.59375 -2.953125 C 15.34375 -2.691406 15.078125 -2.515625 14.796875 -2.421875 C 14.535156 -2.316406 14.207031 -2.265625 13.8125 -2.265625 L 12.796875 -2.265625 C 12.441406 -2.265625 12.113281 -2.316406 11.8125 -2.421875 C 11.664062 -2.460938 11.53125 -2.53125 11.40625 -2.625 C 11.28125 -2.726562 11.15625 -2.835938 11.03125 -2.953125 C 10.8125 -3.222656 10.613281 -3.53125 10.4375 -3.875 C 10.269531 -4.25 10.097656 -4.691406 9.921875 -5.203125 L 5.703125 -15.640625 C 5.679688 -15.691406 5.65625 -15.71875 5.625 -15.71875 L 5.5 -15.71875 C 5.5 -15.71875 5.5 -15.710938 5.5 -15.703125 C 5.5 -15.691406 5.5 -15.679688 5.5 -15.671875 L 5.5 -0.84375 C 5.5 -0.457031 5.410156 -0.210938 5.234375 -0.109375 C 5.066406 -0.015625 4.925781 0.03125 4.8125 0.03125 L 2.6875 0.03125 C 2.570312 0.03125 2.421875 -0.015625 2.234375 -0.109375 C 2.054688 -0.210938 1.96875 -0.457031 1.96875 -0.84375 L 1.96875 -17.140625 C 1.96875 -18.273438 2.101562 -19.078125 2.375 -19.546875 C 2.664062 -20.066406 3.234375 -20.328125 4.078125 -20.328125 L 6.34375 -20.328125 C 6.707031 -20.328125 6.992188 -20.296875 7.203125 -20.234375 C 7.484375 -20.148438 7.710938 -20.023438 7.890625 -19.859375 C 7.972656 -19.765625 8.0625 -19.660156 8.15625 -19.546875 C 8.25 -19.429688 8.328125 -19.296875 8.390625 -19.140625 C 8.453125 -18.992188 8.519531 -18.828125 8.59375 -18.640625 C 8.664062 -18.453125 8.738281 -18.242188 8.8125 -18.015625 L 13.15625 -7.109375 C 13.164062 -7.054688 13.175781 -7.023438 13.1875 -7.015625 C 13.207031 -7.003906 13.21875 -7 13.21875 -7 L 13.46875 -7 C 13.5 -7 13.523438 -7.035156 13.546875 -7.109375 L 17.90625 -18.015625 C 17.988281 -18.242188 18.0625 -18.453125 18.125 -18.640625 C 18.195312 -18.828125 18.265625 -18.992188 18.328125 -19.140625 C 18.410156 -19.296875 18.492188 -19.429688 18.578125 -19.546875 C 18.660156 -19.660156 18.742188 -19.765625 18.828125 -19.859375 C 19.023438 -20.035156 19.242188 -20.160156 19.484375 -20.234375 C 19.703125 -20.296875 19.992188 -20.328125 20.359375 -20.328125 Z M 22.578125 -20.328125 "/></g></g></g><g fill="#00876e" fill-opacity="1"><g transform="translate(139.661209, 198.081303)"><g><path d="M 15.203125 -18.03125 L 22.125 -0.9375 C 22.226562 -0.707031 22.253906 -0.507812 22.203125 -0.34375 C 22.191406 -0.28125 22.144531 -0.203125 22.0625 -0.109375 C 21.988281 -0.015625 21.851562 0.03125 21.65625 0.03125 L 19.015625 0.03125 C 18.671875 0.03125 18.4375 -0.148438 18.3125 -0.515625 L 12.1875 -15.796875 C 12.164062 -15.828125 12.15625 -15.84375 12.15625 -15.84375 L 12.0625 -15.84375 C 12.0625 -15.84375 12.054688 -15.835938 12.046875 -15.828125 C 12.046875 -15.816406 12.035156 -15.796875 12.015625 -15.765625 L 8.859375 -7.765625 L 11.921875 -7.765625 C 12.265625 -7.765625 12.5 -7.601562 12.625 -7.28125 L 13.515625 -5.078125 C 13.597656 -4.796875 13.566406 -4.554688 13.421875 -4.359375 C 13.285156 -4.128906 13.070312 -4.015625 12.78125 -4.015625 L 7.375 -4.015625 L 5.96875 -0.5 C 5.832031 -0.144531 5.601562 0.03125 5.28125 0.03125 L 2.5625 0.03125 C 2.363281 0.03125 2.226562 -0.015625 2.15625 -0.109375 C 2.082031 -0.203125 2.035156 -0.28125 2.015625 -0.34375 C 1.972656 -0.488281 1.992188 -0.6875 2.078125 -0.9375 L 8.953125 -18.03125 C 9.285156 -18.90625 9.648438 -19.507812 10.046875 -19.84375 C 10.085938 -19.875 10.140625 -19.910156 10.203125 -19.953125 C 10.273438 -20.003906 10.34375 -20.046875 10.40625 -20.078125 C 10.90625 -20.421875 11.472656 -20.59375 12.109375 -20.59375 C 12.785156 -20.59375 13.394531 -20.390625 13.9375 -19.984375 C 14.476562 -19.578125 14.847656 -19.050781 15.046875 -18.40625 C 15.078125 -18.351562 15.101562 -18.296875 15.125 -18.234375 C 15.15625 -18.171875 15.179688 -18.101562 15.203125 -18.03125 Z M 15.203125 -18.03125 "/></g></g></g><g fill="#00876e" fill-opacity="1"><g transform="translate(161.007646, 198.081303)"><g><path d="M 18.796875 -14.4375 L 18.796875 -14.28125 C 18.796875 -14.300781 18.796875 -14.3125 18.796875 -14.3125 C 18.796875 -14.320312 18.796875 -14.335938 18.796875 -14.359375 C 18.796875 -14.378906 18.796875 -14.390625 18.796875 -14.390625 C 18.796875 -14.398438 18.796875 -14.414062 18.796875 -14.4375 Z M 19.265625 -1.0625 C 19.367188 -0.925781 19.40625 -0.726562 19.375 -0.46875 C 19.320312 -0.132812 19.128906 0.03125 18.796875 0.03125 L 16.09375 0.03125 C 15.875 0.03125 15.695312 -0.0195312 15.5625 -0.125 C 15.519531 -0.15625 15.476562 -0.203125 15.4375 -0.265625 C 15.394531 -0.335938 15.347656 -0.40625 15.296875 -0.46875 L 10.828125 -8.390625 L 5.625 -8.390625 L 5.625 -0.84375 C 5.625 -0.457031 5.535156 -0.210938 5.359375 -0.109375 C 5.191406 -0.015625 5.050781 0.03125 4.9375 0.03125 L 2.6875 0.03125 C 2.570312 0.03125 2.421875 -0.015625 2.234375 -0.109375 C 2.054688 -0.210938 1.96875 -0.457031 1.96875 -0.84375 L 1.96875 -11.203125 C 1.96875 -11.578125 2.054688 -11.8125 2.234375 -11.90625 C 2.421875 -12 2.570312 -12.046875 2.6875 -12.046875 L 13.421875 -12.046875 C 14.046875 -12.046875 14.484375 -12.222656 14.734375 -12.578125 C 14.992188 -12.941406 15.125 -13.535156 15.125 -14.359375 C 15.125 -15.179688 14.992188 -15.773438 14.734375 -16.140625 C 14.484375 -16.492188 14.046875 -16.671875 13.421875 -16.671875 L 2.6875 -16.671875 C 2.570312 -16.671875 2.421875 -16.71875 2.234375 -16.8125 C 2.054688 -16.90625 1.96875 -17.140625 1.96875 -17.515625 L 1.96875 -19.46875 C 1.96875 -19.863281 2.054688 -20.101562 2.234375 -20.1875 C 2.421875 -20.28125 2.570312 -20.328125 2.6875 -20.328125 L 14.0625 -20.328125 C 15.757812 -20.328125 16.976562 -19.800781 17.71875 -18.75 C 18.425781 -17.726562 18.785156 -16.265625 18.796875 -14.359375 C 18.785156 -12.453125 18.425781 -10.988281 17.71875 -9.96875 C 17.09375 -9.113281 16.171875 -8.613281 14.953125 -8.46875 Z M 19.265625 -1.0625 "/></g></g></g><g fill="#00876e" fill-opacity="1"><g transform="translate(179.491429, 198.081303)"><g><path d="M 19.015625 -20.328125 C 19.128906 -20.328125 19.273438 -20.28125 19.453125 -20.1875 C 19.640625 -20.101562 19.734375 -19.867188 19.734375 -19.484375 L 19.734375 -17.5625 C 19.734375 -17.15625 19.640625 -16.90625 19.453125 -16.8125 C 19.273438 -16.71875 19.128906 -16.671875 19.015625 -16.671875 L 12.6875 -16.671875 L 12.6875 -0.84375 C 12.6875 -0.457031 12.597656 -0.21875 12.421875 -0.125 C 12.242188 -0.0390625 12.097656 0 11.984375 0 L 9.71875 0 C 9.625 0 9.484375 -0.0390625 9.296875 -0.125 C 9.117188 -0.21875 9.03125 -0.457031 9.03125 -0.84375 L 9.03125 -16.671875 L 2.6875 -16.671875 C 2.570312 -16.671875 2.421875 -16.71875 2.234375 -16.8125 C 2.054688 -16.90625 1.96875 -17.15625 1.96875 -17.5625 L 1.96875 -19.484375 C 1.96875 -19.867188 2.054688 -20.101562 2.234375 -20.1875 C 2.421875 -20.28125 2.570312 -20.328125 2.6875 -20.328125 Z M 19.015625 -20.328125 "/></g></g></g><g fill="#00876e" fill-opacity="1"><g transform="translate(198.320703, 198.081303)"><g/></g></g><g fill="#00876e" fill-opacity="1"><g transform="translate(208.117832, 198.081303)"><g><path d="M 17.046875 -20.328125 C 17.148438 -20.328125 17.289062 -20.273438 17.46875 -20.171875 C 17.644531 -20.078125 17.734375 -19.84375 17.734375 -19.46875 L 17.734375 -17.5625 C 17.734375 -17.164062 17.644531 -16.914062 17.46875 -16.8125 C 17.289062 -16.71875 17.148438 -16.671875 17.046875 -16.671875 L 8.1875 -16.671875 C 7.632812 -16.671875 7.207031 -16.613281 6.90625 -16.5 C 6.613281 -16.40625 6.367188 -16.226562 6.171875 -15.96875 C 5.984375 -15.71875 5.84375 -15.351562 5.75 -14.875 C 5.71875 -14.644531 5.6875 -14.378906 5.65625 -14.078125 C 5.632812 -13.773438 5.625 -13.429688 5.625 -13.046875 L 5.625 -7.296875 C 5.625 -6.941406 5.632812 -6.609375 5.65625 -6.296875 C 5.6875 -5.984375 5.71875 -5.703125 5.75 -5.453125 C 5.800781 -5.222656 5.859375 -5.015625 5.921875 -4.828125 C 5.984375 -4.648438 6.066406 -4.492188 6.171875 -4.359375 C 6.367188 -4.097656 6.613281 -3.921875 6.90625 -3.828125 C 7.207031 -3.710938 7.632812 -3.65625 8.1875 -3.65625 L 17.046875 -3.65625 C 17.148438 -3.65625 17.289062 -3.601562 17.46875 -3.5 C 17.644531 -3.40625 17.734375 -3.164062 17.734375 -2.78125 L 17.734375 -0.84375 C 17.734375 -0.457031 17.644531 -0.210938 17.46875 -0.109375 C 17.289062 -0.015625 17.148438 0.03125 17.046875 0.03125 L 8.0625 0.03125 C 7 0.03125 6.070312 -0.109375 5.28125 -0.390625 C 4.519531 -0.660156 3.882812 -1.113281 3.375 -1.75 C 2.863281 -2.40625 2.503906 -3.210938 2.296875 -4.171875 C 2.179688 -4.660156 2.097656 -5.203125 2.046875 -5.796875 C 1.992188 -6.390625 1.96875 -7.03125 1.96875 -7.71875 L 1.96875 -12.609375 C 1.96875 -13.285156 1.992188 -13.914062 2.046875 -14.5 C 2.097656 -15.09375 2.179688 -15.628906 2.296875 -16.109375 C 2.503906 -17.097656 2.863281 -17.90625 3.375 -18.53125 C 3.851562 -19.15625 4.488281 -19.613281 5.28125 -19.90625 C 6.070312 -20.1875 7 -20.328125 8.0625 -20.328125 Z M 17.046875 -20.328125 "/></g></g></g><g fill="#00876e" fill-opacity="1"><g transform="translate(224.948182, 198.081303)"><g><path d="M 15.203125 -18.03125 L 22.125 -0.9375 C 22.226562 -0.707031 22.253906 -0.507812 22.203125 -0.34375 C 22.191406 -0.28125 22.144531 -0.203125 22.0625 -0.109375 C 21.988281 -0.015625 21.851562 0.03125 21.65625 0.03125 L 19.015625 0.03125 C 18.671875 0.03125 18.4375 -0.148438 18.3125 -0.515625 L 12.1875 -15.796875 C 12.164062 -15.828125 12.15625 -15.84375 12.15625 -15.84375 L 12.0625 -15.84375 C 12.0625 -15.84375 12.054688 -15.835938 12.046875 -15.828125 C 12.046875 -15.816406 12.035156 -15.796875 12.015625 -15.765625 L 8.859375 -7.765625 L 11.921875 -7.765625 C 12.265625 -7.765625 12.5 -7.601562 12.625 -7.28125 L 13.515625 -5.078125 C 13.597656 -4.796875 13.566406 -4.554688 13.421875 -4.359375 C 13.285156 -4.128906 13.070312 -4.015625 12.78125 -4.015625 L 7.375 -4.015625 L 5.96875 -0.5 C 5.832031 -0.144531 5.601562 0.03125 5.28125 0.03125 L 2.5625 0.03125 C 2.363281 0.03125 2.226562 -0.015625 2.15625 -0.109375 C 2.082031 -0.203125 2.035156 -0.28125 2.015625 -0.34375 C 1.972656 -0.488281 1.992188 -0.6875 2.078125 -0.9375 L 8.953125 -18.03125 C 9.285156 -18.90625 9.648438 -19.507812 10.046875 -19.84375 C 10.085938 -19.875 10.140625 -19.910156 10.203125 -19.953125 C 10.273438 -20.003906 10.34375 -20.046875 10.40625 -20.078125 C 10.90625 -20.421875 11.472656 -20.59375 12.109375 -20.59375 C 12.785156 -20.59375 13.394531 -20.390625 13.9375 -19.984375 C 14.476562 -19.578125 14.847656 -19.050781 15.046875 -18.40625 C 15.078125 -18.351562 15.101562 -18.296875 15.125 -18.234375 C 15.15625 -18.171875 15.179688 -18.101562 15.203125 -18.03125 Z M 15.203125 -18.03125 "/></g></g></g><g fill="#00876e" fill-opacity="1"><g transform="translate(246.294615, 198.081303)"><g><path d="M 14.0625 -20.328125 C 15.738281 -20.328125 16.945312 -19.800781 17.6875 -18.75 C 18.414062 -17.757812 18.78125 -16.269531 18.78125 -14.28125 L 18.78125 -14.4375 C 18.78125 -12.476562 18.414062 -10.988281 17.6875 -9.96875 C 16.945312 -8.925781 15.738281 -8.40625 14.0625 -8.40625 L 5.625 -8.390625 L 5.625 -0.84375 C 5.625 -0.457031 5.53125 -0.210938 5.34375 -0.109375 C 5.164062 -0.015625 5.03125 0.03125 4.9375 0.03125 L 2.671875 0.03125 C 2.566406 0.03125 2.421875 -0.015625 2.234375 -0.109375 C 2.054688 -0.210938 1.96875 -0.457031 1.96875 -0.84375 L 1.96875 -11.203125 C 1.96875 -11.578125 2.054688 -11.8125 2.234375 -11.90625 C 2.421875 -12 2.566406 -12.046875 2.671875 -12.046875 L 13.421875 -12.046875 C 14.046875 -12.046875 14.484375 -12.222656 14.734375 -12.578125 C 14.992188 -12.941406 15.125 -13.535156 15.125 -14.359375 C 15.125 -15.179688 14.992188 -15.773438 14.734375 -16.140625 C 14.484375 -16.492188 14.046875 -16.671875 13.421875 -16.671875 L 2.671875 -16.671875 C 2.566406 -16.671875 2.421875 -16.71875 2.234375 -16.8125 C 2.054688 -16.90625 1.96875 -17.140625 1.96875 -17.515625 L 1.96875 -19.46875 C 1.96875 -19.863281 2.054688 -20.101562 2.234375 -20.1875 C 2.421875 -20.28125 2.566406 -20.328125 2.671875 -20.328125 Z M 14.0625 -20.328125 "/></g></g></g><g fill="#00876e" fill-opacity="1"><g transform="translate(264.161456, 198.081303)"><g><path d="M 4.9375 -20.328125 C 5.03125 -20.328125 5.164062 -20.273438 5.34375 -20.171875 C 5.53125 -20.078125 5.625 -19.84375 5.625 -19.46875 L 5.625 -0.84375 C 5.625 -0.457031 5.53125 -0.210938 5.34375 -0.109375 C 5.164062 -0.015625 5.03125 0.03125 4.9375 0.03125 L 2.671875 0.03125 C 2.566406 0.03125 2.421875 -0.015625 2.234375 -0.109375 C 2.054688 -0.210938 1.96875 -0.457031 1.96875 -0.84375 L 1.96875 -19.46875 C 1.96875 -19.84375 2.054688 -20.078125 2.234375 -20.171875 C 2.421875 -20.273438 2.566406 -20.328125 2.671875 -20.328125 Z M 4.9375 -20.328125 "/></g></g></g><g fill="#00876e" fill-opacity="1"><g transform="translate(268.874929, 198.081303)"><g><path d="M 19.015625 -20.328125 C 19.128906 -20.328125 19.273438 -20.28125 19.453125 -20.1875 C 19.640625 -20.101562 19.734375 -19.867188 19.734375 -19.484375 L 19.734375 -17.5625 C 19.734375 -17.15625 19.640625 -16.90625 19.453125 -16.8125 C 19.273438 -16.71875 19.128906 -16.671875 19.015625 -16.671875 L 12.6875 -16.671875 L 12.6875 -0.84375 C 12.6875 -0.457031 12.597656 -0.21875 12.421875 -0.125 C 12.242188 -0.0390625 12.097656 0 11.984375 0 L 9.71875 0 C 9.625 0 9.484375 -0.0390625 9.296875 -0.125 C 9.117188 -0.21875 9.03125 -0.457031 9.03125 -0.84375 L 9.03125 -16.671875 L 2.6875 -16.671875 C 2.570312 -16.671875 2.421875 -16.71875 2.234375 -16.8125 C 2.054688 -16.90625 1.96875 -17.15625 1.96875 -17.5625 L 1.96875 -19.484375 C 1.96875 -19.867188 2.054688 -20.101562 2.234375 -20.1875 C 2.421875 -20.28125 2.570312 -20.328125 2.6875 -20.328125 Z M 19.015625 -20.328125 "/></g></g></g><g fill="#00876e" fill-opacity="1"><g transform="translate(287.704212, 198.081303)"><g><path d="M 15.203125 -18.03125 L 22.125 -0.9375 C 22.226562 -0.707031 22.253906 -0.507812 22.203125 -0.34375 C 22.191406 -0.28125 22.144531 -0.203125 22.0625 -0.109375 C 21.988281 -0.015625 21.851562 0.03125 21.65625 0.03125 L 19.015625 0.03125 C 18.671875 0.03125 18.4375 -0.148438 18.3125 -0.515625 L 12.1875 -15.796875 C 12.164062 -15.828125 12.15625 -15.84375 12.15625 -15.84375 L 12.0625 -15.84375 C 12.0625 -15.84375 12.054688 -15.835938 12.046875 -15.828125 C 12.046875 -15.816406 12.035156 -15.796875 12.015625 -15.765625 L 8.859375 -7.765625 L 11.921875 -7.765625 C 12.265625 -7.765625 12.5 -7.601562 12.625 -7.28125 L 13.515625 -5.078125 C 13.597656 -4.796875 13.566406 -4.554688 13.421875 -4.359375 C 13.285156 -4.128906 13.070312 -4.015625 12.78125 -4.015625 L 7.375 -4.015625 L 5.96875 -0.5 C 5.832031 -0.144531 5.601562 0.03125 5.28125 0.03125 L 2.5625 0.03125 C 2.363281 0.03125 2.226562 -0.015625 2.15625 -0.109375 C 2.082031 -0.203125 2.035156 -0.28125 2.015625 -0.34375 C 1.972656 -0.488281 1.992188 -0.6875 2.078125 -0.9375 L 8.953125 -18.03125 C 9.285156 -18.90625 9.648438 -19.507812 10.046875 -19.84375 C 10.085938 -19.875 10.140625 -19.910156 10.203125 -19.953125 C 10.273438 -20.003906 10.34375 -20.046875 10.40625 -20.078125 C 10.90625 -20.421875 11.472656 -20.59375 12.109375 -20.59375 C 12.785156 -20.59375 13.394531 -20.390625 13.9375 -19.984375 C 14.476562 -19.578125 14.847656 -19.050781 15.046875 -18.40625 C 15.078125 -18.351562 15.101562 -18.296875 15.125 -18.234375 C 15.15625 -18.171875 15.179688 -18.101562 15.203125 -18.03125 Z M 15.203125 -18.03125 "/></g></g></g><g fill="#00876e" fill-opacity="1"><g transform="translate(309.050645, 198.081303)"><g><path d="M 16.203125 -3.65625 C 16.316406 -3.65625 16.460938 -3.601562 16.640625 -3.5 C 16.816406 -3.40625 16.90625 -3.164062 16.90625 -2.78125 L 16.90625 -0.84375 C 16.90625 -0.457031 16.816406 -0.210938 16.640625 -0.109375 C 16.460938 -0.015625 16.316406 0.03125 16.203125 0.03125 L 8.0625 0.03125 C 6.976562 0.03125 6.054688 -0.109375 5.296875 -0.390625 C 4.523438 -0.660156 3.882812 -1.125 3.375 -1.78125 C 2.90625 -2.375 2.550781 -3.175781 2.3125 -4.1875 C 2.082031 -5.195312 1.96875 -6.375 1.96875 -7.71875 L 1.96875 -19.46875 C 1.96875 -19.863281 2.054688 -20.101562 2.234375 -20.1875 C 2.421875 -20.28125 2.570312 -20.328125 2.6875 -20.328125 L 4.953125 -20.328125 C 5.054688 -20.328125 5.195312 -20.28125 5.375 -20.1875 C 5.5625 -20.101562 5.65625 -19.863281 5.65625 -19.46875 L 5.65625 -7.296875 C 5.65625 -6.941406 5.660156 -6.609375 5.671875 -6.296875 C 5.691406 -5.984375 5.722656 -5.703125 5.765625 -5.453125 C 5.835938 -5.003906 5.976562 -4.640625 6.1875 -4.359375 C 6.351562 -4.097656 6.59375 -3.921875 6.90625 -3.828125 C 7.238281 -3.710938 7.664062 -3.65625 8.1875 -3.65625 Z M 16.203125 -3.65625 "/></g></g></g><g fill="#272e35" fill-opacity="1"><g transform="translate(164.123011, 217.628235)"><g><path d="M 2.703125 -6.71875 L 0.046875 -6.71875 L 0.046875 -8.28125 L 7.265625 -8.28125 L 7.265625 -6.71875 L 4.609375 -6.71875 L 4.609375 0 L 2.703125 0 Z M 2.703125 -6.71875 "/></g></g></g><g fill="#272e35" fill-opacity="1"><g transform="translate(171.426808, 217.628235)"><g><path d="M 7.390625 -1.53125 L 7.390625 0 L 0.984375 0 L 0.984375 -8.28125 L 7.234375 -8.28125 L 7.234375 -6.734375 L 2.890625 -6.734375 L 2.890625 -4.9375 L 6.734375 -4.9375 L 6.734375 -3.453125 L 2.890625 -3.453125 L 2.890625 -1.53125 Z M 7.390625 -1.53125 "/></g></g></g><g fill="#272e35" fill-opacity="1"><g transform="translate(179.356978, 217.628235)"><g><path d="M 4.9375 0.140625 C 4.09375 0.140625 3.328125 -0.0390625 2.640625 -0.40625 C 1.960938 -0.769531 1.429688 -1.273438 1.046875 -1.921875 C 0.660156 -2.578125 0.46875 -3.316406 0.46875 -4.140625 C 0.46875 -4.960938 0.660156 -5.695312 1.046875 -6.34375 C 1.429688 -7 1.960938 -7.507812 2.640625 -7.875 C 3.328125 -8.238281 4.097656 -8.421875 4.953125 -8.421875 C 5.671875 -8.421875 6.316406 -8.296875 6.890625 -8.046875 C 7.472656 -7.796875 7.960938 -7.429688 8.359375 -6.953125 L 7.125 -5.8125 C 6.570312 -6.46875 5.878906 -6.796875 5.046875 -6.796875 C 4.535156 -6.796875 4.078125 -6.679688 3.671875 -6.453125 C 3.273438 -6.222656 2.960938 -5.90625 2.734375 -5.5 C 2.515625 -5.101562 2.40625 -4.648438 2.40625 -4.140625 C 2.40625 -3.628906 2.515625 -3.171875 2.734375 -2.765625 C 2.960938 -2.367188 3.273438 -2.054688 3.671875 -1.828125 C 4.078125 -1.597656 4.535156 -1.484375 5.046875 -1.484375 C 5.878906 -1.484375 6.570312 -1.8125 7.125 -2.46875 L 8.359375 -1.34375 C 7.960938 -0.851562 7.472656 -0.484375 6.890625 -0.234375 C 6.304688 0.015625 5.65625 0.140625 4.9375 0.140625 Z M 4.9375 0.140625 "/></g></g></g><g fill="#272e35" fill-opacity="1"><g transform="translate(188.01989, 217.628235)"><g><path d="M 8.578125 -8.28125 L 8.578125 0 L 6.65625 0 L 6.65625 -3.390625 L 2.890625 -3.390625 L 2.890625 0 L 0.984375 0 L 0.984375 -8.28125 L 2.890625 -8.28125 L 2.890625 -5.015625 L 6.65625 -5.015625 L 6.65625 -8.28125 Z M 8.578125 -8.28125 "/></g></g></g><g fill="#272e35" fill-opacity="1"><g transform="translate(197.569189, 217.628235)"><g><path d="M 8.578125 -8.28125 L 8.578125 0 L 7 0 L 2.875 -5.03125 L 2.875 0 L 0.984375 0 L 0.984375 -8.28125 L 2.5625 -8.28125 L 6.6875 -3.25 L 6.6875 -8.28125 Z M 8.578125 -8.28125 "/></g></g></g><g fill="#272e35" fill-opacity="1"><g transform="translate(207.118487, 217.628235)"><g><path d="M 4.984375 0.140625 C 4.128906 0.140625 3.351562 -0.0390625 2.65625 -0.40625 C 1.96875 -0.78125 1.429688 -1.289062 1.046875 -1.9375 C 0.660156 -2.59375 0.46875 -3.328125 0.46875 -4.140625 C 0.46875 -4.953125 0.660156 -5.679688 1.046875 -6.328125 C 1.429688 -6.984375 1.96875 -7.492188 2.65625 -7.859375 C 3.351562 -8.234375 4.128906 -8.421875 4.984375 -8.421875 C 5.847656 -8.421875 6.625 -8.234375 7.3125 -7.859375 C 8 -7.492188 8.535156 -6.984375 8.921875 -6.328125 C 9.316406 -5.679688 9.515625 -4.953125 9.515625 -4.140625 C 9.515625 -3.328125 9.316406 -2.59375 8.921875 -1.9375 C 8.535156 -1.289062 8 -0.78125 7.3125 -0.40625 C 6.625 -0.0390625 5.847656 0.140625 4.984375 0.140625 Z M 4.984375 -1.484375 C 5.472656 -1.484375 5.914062 -1.597656 6.3125 -1.828125 C 6.707031 -2.054688 7.015625 -2.367188 7.234375 -2.765625 C 7.460938 -3.171875 7.578125 -3.628906 7.578125 -4.140625 C 7.578125 -4.648438 7.460938 -5.101562 7.234375 -5.5 C 7.015625 -5.90625 6.707031 -6.222656 6.3125 -6.453125 C 5.914062 -6.679688 5.472656 -6.796875 4.984375 -6.796875 C 4.503906 -6.796875 4.066406 -6.679688 3.671875 -6.453125 C 3.273438 -6.222656 2.960938 -5.90625 2.734375 -5.5 C 2.515625 -5.101562 2.40625 -4.648438 2.40625 -4.140625 C 2.40625 -3.628906 2.515625 -3.171875 2.734375 -2.765625 C 2.960938 -2.367188 3.273438 -2.054688 3.671875 -1.828125 C 4.066406 -1.597656 4.503906 -1.484375 4.984375 -1.484375 Z M 4.984375 -1.484375 "/></g></g></g><g fill="#272e35" fill-opacity="1"><g transform="translate(217.093247, 217.628235)"><g><path d="M 0.984375 -8.28125 L 2.890625 -8.28125 L 2.890625 -1.5625 L 7.046875 -1.5625 L 7.046875 0 L 0.984375 0 Z M 0.984375 -8.28125 "/></g></g></g><g fill="#272e35" fill-opacity="1"><g transform="translate(224.231584, 217.628235)"><g><path d="M 4.984375 0.140625 C 4.128906 0.140625 3.351562 -0.0390625 2.65625 -0.40625 C 1.96875 -0.78125 1.429688 -1.289062 1.046875 -1.9375 C 0.660156 -2.59375 0.46875 -3.328125 0.46875 -4.140625 C 0.46875 -4.953125 0.660156 -5.679688 1.046875 -6.328125 C 1.429688 -6.984375 1.96875 -7.492188 2.65625 -7.859375 C 3.351562 -8.234375 4.128906 -8.421875 4.984375 -8.421875 C 5.847656 -8.421875 6.625 -8.234375 7.3125 -7.859375 C 8 -7.492188 8.535156 -6.984375 8.921875 -6.328125 C 9.316406 -5.679688 9.515625 -4.953125 9.515625 -4.140625 C 9.515625 -3.328125 9.316406 -2.59375 8.921875 -1.9375 C 8.535156 -1.289062 8 -0.78125 7.3125 -0.40625 C 6.625 -0.0390625 5.847656 0.140625 4.984375 0.140625 Z M 4.984375 -1.484375 C 5.472656 -1.484375 5.914062 -1.597656 6.3125 -1.828125 C 6.707031 -2.054688 7.015625 -2.367188 7.234375 -2.765625 C 7.460938 -3.171875 7.578125 -3.628906 7.578125 -4.140625 C 7.578125 -4.648438 7.460938 -5.101562 7.234375 -5.5 C 7.015625 -5.90625 6.707031 -6.222656 6.3125 -6.453125 C 5.914062 -6.679688 5.472656 -6.796875 4.984375 -6.796875 C 4.503906 -6.796875 4.066406 -6.679688 3.671875 -6.453125 C 3.273438 -6.222656 2.960938 -5.90625 2.734375 -5.5 C 2.515625 -5.101562 2.40625 -4.648438 2.40625 -4.140625 C 2.40625 -3.628906 2.515625 -3.171875 2.734375 -2.765625 C 2.960938 -2.367188 3.273438 -2.054688 3.671875 -1.828125 C 4.066406 -1.597656 4.503906 -1.484375 4.984375 -1.484375 Z M 4.984375 -1.484375 "/></g></g></g><g fill="#272e35" fill-opacity="1"><g transform="translate(234.206345, 217.628235)"><g><path d="M 6.578125 -4.265625 L 8.328125 -4.265625 L 8.328125 -0.90625 C 7.878906 -0.570312 7.359375 -0.3125 6.765625 -0.125 C 6.171875 0.0507812 5.578125 0.140625 4.984375 0.140625 C 4.117188 0.140625 3.34375 -0.0390625 2.65625 -0.40625 C 1.96875 -0.769531 1.429688 -1.273438 1.046875 -1.921875 C 0.660156 -2.578125 0.46875 -3.316406 0.46875 -4.140625 C 0.46875 -4.960938 0.660156 -5.695312 1.046875 -6.34375 C 1.429688 -7 1.972656 -7.507812 2.671875 -7.875 C 3.367188 -8.238281 4.148438 -8.421875 5.015625 -8.421875 C 5.742188 -8.421875 6.398438 -8.296875 6.984375 -8.046875 C 7.578125 -7.804688 8.078125 -7.453125 8.484375 -6.984375 L 7.25 -5.859375 C 6.65625 -6.484375 5.941406 -6.796875 5.109375 -6.796875 C 4.578125 -6.796875 4.109375 -6.679688 3.703125 -6.453125 C 3.296875 -6.234375 2.976562 -5.921875 2.75 -5.515625 C 2.519531 -5.117188 2.40625 -4.660156 2.40625 -4.140625 C 2.40625 -3.628906 2.519531 -3.171875 2.75 -2.765625 C 2.976562 -2.367188 3.296875 -2.054688 3.703125 -1.828125 C 4.109375 -1.597656 4.570312 -1.484375 5.09375 -1.484375 C 5.644531 -1.484375 6.140625 -1.601562 6.578125 -1.84375 Z M 6.578125 -4.265625 "/></g></g></g><g fill="#272e35" fill-opacity="1"><g transform="translate(243.318357, 217.628235)"><g><path d="M 4.953125 -2.9375 L 4.953125 0 L 3.046875 0 L 3.046875 -2.953125 L -0.171875 -8.28125 L 1.875 -8.28125 L 4.078125 -4.59375 L 6.296875 -8.28125 L 8.171875 -8.28125 Z M 4.953125 -2.9375 "/></g></g></g></svg>