<svg xmlns="http://www.w3.org/2000/svg" xmlns:xlink="http://www.w3.org/1999/xlink" width="500" zoomAndPan="magnify" viewBox="0 0 375 374.999991" height="500" preserveAspectRatio="xMidYMid meet" version="1.0"><defs><g/><clipPath id="5cbf4eb071"><path d="M 25.96875 149.882812 L 94.96875 149.882812 L 94.96875 224.882812 L 25.96875 224.882812 Z M 25.96875 149.882812 " clip-rule="nonzero"/></clipPath></defs><path fill="#ffffff" d="M 55.707031 197.214844 C 55.707031 199.21875 54.082031 200.847656 52.074219 200.847656 C 50.066406 200.847656 48.4375 199.21875 48.4375 197.214844 L 48.4375 191.132812 C 48.4375 189.125 50.066406 187.5 52.074219 187.5 C 54.082031 187.5 55.707031 189.125 55.707031 191.132812 Z M 72.410156 191.132812 C 72.410156 189.125 70.785156 187.5 68.773438 187.5 C 66.765625 187.5 65.140625 189.125 65.140625 191.132812 L 65.140625 197.214844 C 65.140625 199.21875 66.769531 200.847656 68.773438 200.847656 C 70.785156 200.847656 72.410156 199.21875 72.410156 197.214844 Z M 72.410156 191.132812 " fill-opacity="1" fill-rule="nonzero"/><g clip-path="url(#5cbf4eb071)"><path fill="#1b9e86" d="M 94.617188 196.582031 L 94.617188 205.15625 C 94.617188 208.339844 92.035156 210.921875 88.851562 210.921875 C 87.636719 210.921875 86.507812 210.542969 85.578125 209.898438 C 80.8125 218.933594 71.328125 225.105469 60.425781 225.105469 C 49.464844 225.105469 39.9375 218.867188 35.195312 209.757812 C 34.230469 210.484375 33.035156 210.921875 31.734375 210.921875 C 28.550781 210.921875 25.96875 208.339844 25.96875 205.15625 L 25.96875 196.582031 C 25.96875 193.398438 28.550781 190.816406 31.734375 190.816406 C 32.023438 190.816406 32.308594 190.84375 32.585938 190.886719 C 34.3125 182.488281 39.75 175.265625 47.625 171.289062 L 51.167969 178.304688 C 44.191406 181.828125 39.855469 188.867188 39.855469 196.675781 C 39.855469 208.019531 49.082031 217.246094 60.425781 217.246094 C 71.765625 217.246094 80.992188 208.019531 80.992188 196.675781 C 80.992188 186.292969 73.253906 177.683594 63.242188 176.308594 C 63.242188 176.304688 63.242188 176.304688 63.242188 176.304688 C 63.242188 176.304688 63.226562 176.304688 63.203125 176.300781 C 62.917969 176.261719 62.632812 176.230469 62.34375 176.203125 C 60.507812 175.855469 56.492188 174.289062 56.492188 167.265625 L 56.492188 161.679688 L 50.074219 161.679688 L 60.425781 149.890625 L 70.773438 161.679688 L 64.355469 161.679688 L 64.355469 166.066406 C 64.4375 166.980469 64.835938 168.386719 66.421875 168.894531 C 66.652344 168.941406 66.878906 168.992188 67.105469 169.046875 C 67.121094 169.050781 67.136719 169.054688 67.152344 169.054688 L 67.152344 169.058594 C 77.730469 171.636719 86.007812 180.144531 88.246094 190.851562 C 88.445312 190.828125 88.648438 190.816406 88.851562 190.816406 C 92.035156 190.816406 94.617188 193.398438 94.617188 196.582031 Z M 94.617188 196.582031 " fill-opacity="1" fill-rule="nonzero"/></g><g fill="#ffffff" fill-opacity="1"><g transform="translate(110.571262, 198.081421)"><g><path d="M 13.890625 -12.140625 C 15.171875 -12.140625 16.148438 -11.6875 16.828125 -10.78125 C 17.460938 -9.894531 17.78125 -8.644531 17.78125 -7.03125 L 17.78125 -4.859375 C 17.78125 -3.441406 17.46875 -2.28125 16.84375 -1.375 C 16.207031 -0.457031 15.207031 0 13.84375 0 L 2.71875 0 C 2.601562 0 2.453125 -0.0390625 2.265625 -0.125 C 2.085938 -0.21875 2 -0.457031 2 -0.84375 L 2 -2.8125 C 2 -3.1875 2.085938 -3.421875 2.265625 -3.515625 C 2.453125 -3.609375 2.601562 -3.65625 2.71875 -3.65625 L 13.25 -3.65625 C 13.457031 -3.65625 13.609375 -3.691406 13.703125 -3.765625 C 13.796875 -3.835938 13.867188 -3.90625 13.921875 -3.96875 C 14.066406 -4.21875 14.140625 -4.566406 14.140625 -5.015625 L 14.140625 -7.125 C 14.140625 -7.738281 14.039062 -8.117188 13.84375 -8.265625 C 13.644531 -8.410156 13.453125 -8.484375 13.265625 -8.484375 L 5.875 -8.484375 C 5.363281 -8.484375 4.835938 -8.546875 4.296875 -8.671875 C 3.765625 -8.804688 3.3125 -9.128906 2.9375 -9.640625 C 2.289062 -10.546875 1.96875 -11.863281 1.96875 -13.59375 L 1.96875 -15.46875 C 1.96875 -16.914062 2.289062 -18.082031 2.9375 -18.96875 C 3.570312 -19.875 4.566406 -20.328125 5.921875 -20.328125 L 16.5625 -20.328125 C 16.65625 -20.328125 16.789062 -20.28125 16.96875 -20.1875 C 17.15625 -20.101562 17.25 -19.867188 17.25 -19.484375 L 17.25 -17.515625 C 17.25 -17.140625 17.15625 -16.90625 16.96875 -16.8125 C 16.789062 -16.71875 16.65625 -16.671875 16.5625 -16.671875 L 6.515625 -16.671875 C 6.296875 -16.671875 6.140625 -16.640625 6.046875 -16.578125 C 5.960938 -16.515625 5.894531 -16.441406 5.84375 -16.359375 C 5.71875 -16.097656 5.65625 -15.753906 5.65625 -15.328125 L 5.65625 -13.5 C 5.65625 -12.882812 5.75 -12.503906 5.9375 -12.359375 C 6.125 -12.210938 6.304688 -12.140625 6.484375 -12.140625 Z M 13.890625 -12.140625 "/></g></g></g><g fill="#ffffff" fill-opacity="1"><g transform="translate(127.450972, 198.081421)"><g><path d="M 22.578125 -20.328125 C 23.398438 -20.328125 23.957031 -20.066406 24.25 -19.546875 C 24.507812 -19.078125 24.640625 -18.273438 24.640625 -17.140625 L 24.640625 -0.84375 C 24.640625 -0.457031 24.550781 -0.210938 24.375 -0.109375 C 24.195312 -0.015625 24.050781 0.03125 23.9375 0.03125 L 21.8125 0.03125 C 21.707031 0.03125 21.566406 -0.015625 21.390625 -0.109375 C 21.210938 -0.210938 21.125 -0.457031 21.125 -0.84375 L 21.125 -15.671875 C 21.125 -15.679688 21.125 -15.691406 21.125 -15.703125 C 21.125 -15.710938 21.125 -15.71875 21.125 -15.71875 L 21 -15.71875 C 20.96875 -15.71875 20.953125 -15.703125 20.953125 -15.671875 L 16.703125 -5.203125 C 16.535156 -4.691406 16.363281 -4.25 16.1875 -3.875 C 16.101562 -3.695312 16.003906 -3.53125 15.890625 -3.375 C 15.785156 -3.226562 15.6875 -3.085938 15.59375 -2.953125 C 15.34375 -2.691406 15.078125 -2.515625 14.796875 -2.421875 C 14.535156 -2.316406 14.207031 -2.265625 13.8125 -2.265625 L 12.796875 -2.265625 C 12.441406 -2.265625 12.113281 -2.316406 11.8125 -2.421875 C 11.664062 -2.460938 11.53125 -2.53125 11.40625 -2.625 C 11.28125 -2.726562 11.15625 -2.835938 11.03125 -2.953125 C 10.8125 -3.222656 10.613281 -3.53125 10.4375 -3.875 C 10.269531 -4.25 10.097656 -4.691406 9.921875 -5.203125 L 5.703125 -15.640625 C 5.679688 -15.691406 5.65625 -15.71875 5.625 -15.71875 L 5.5 -15.71875 C 5.5 -15.71875 5.5 -15.710938 5.5 -15.703125 C 5.5 -15.691406 5.5 -15.679688 5.5 -15.671875 L 5.5 -0.84375 C 5.5 -0.457031 5.410156 -0.210938 5.234375 -0.109375 C 5.066406 -0.015625 4.925781 0.03125 4.8125 0.03125 L 2.6875 0.03125 C 2.570312 0.03125 2.421875 -0.015625 2.234375 -0.109375 C 2.054688 -0.210938 1.96875 -0.457031 1.96875 -0.84375 L 1.96875 -17.140625 C 1.96875 -18.273438 2.101562 -19.078125 2.375 -19.546875 C 2.664062 -20.066406 3.234375 -20.328125 4.078125 -20.328125 L 6.34375 -20.328125 C 6.707031 -20.328125 6.992188 -20.296875 7.203125 -20.234375 C 7.484375 -20.148438 7.710938 -20.023438 7.890625 -19.859375 C 7.972656 -19.765625 8.0625 -19.660156 8.15625 -19.546875 C 8.25 -19.429688 8.328125 -19.296875 8.390625 -19.140625 C 8.453125 -18.992188 8.519531 -18.828125 8.59375 -18.640625 C 8.664062 -18.453125 8.738281 -18.242188 8.8125 -18.015625 L 13.15625 -7.109375 C 13.164062 -7.054688 13.175781 -7.023438 13.1875 -7.015625 C 13.207031 -7.003906 13.21875 -7 13.21875 -7 L 13.46875 -7 C 13.5 -7 13.523438 -7.035156 13.546875 -7.109375 L 17.90625 -18.015625 C 17.988281 -18.242188 18.0625 -18.453125 18.125 -18.640625 C 18.195312 -18.828125 18.265625 -18.992188 18.328125 -19.140625 C 18.410156 -19.296875 18.492188 -19.429688 18.578125 -19.546875 C 18.660156 -19.660156 18.742188 -19.765625 18.828125 -19.859375 C 19.023438 -20.035156 19.242188 -20.160156 19.484375 -20.234375 C 19.703125 -20.296875 19.992188 -20.328125 20.359375 -20.328125 Z M 22.578125 -20.328125 "/></g></g></g><g fill="#ffffff" fill-opacity="1"><g transform="translate(151.191168, 198.081421)"><g><path d="M 15.203125 -18.03125 L 22.125 -0.9375 C 22.226562 -0.707031 22.253906 -0.507812 22.203125 -0.34375 C 22.191406 -0.28125 22.144531 -0.203125 22.0625 -0.109375 C 21.988281 -0.015625 21.851562 0.03125 21.65625 0.03125 L 19.015625 0.03125 C 18.671875 0.03125 18.4375 -0.148438 18.3125 -0.515625 L 12.1875 -15.796875 C 12.164062 -15.828125 12.15625 -15.84375 12.15625 -15.84375 L 12.0625 -15.84375 C 12.0625 -15.84375 12.054688 -15.835938 12.046875 -15.828125 C 12.046875 -15.816406 12.035156 -15.796875 12.015625 -15.765625 L 8.859375 -7.765625 L 11.921875 -7.765625 C 12.265625 -7.765625 12.5 -7.601562 12.625 -7.28125 L 13.515625 -5.078125 C 13.597656 -4.796875 13.566406 -4.554688 13.421875 -4.359375 C 13.285156 -4.128906 13.070312 -4.015625 12.78125 -4.015625 L 7.375 -4.015625 L 5.96875 -0.5 C 5.832031 -0.144531 5.601562 0.03125 5.28125 0.03125 L 2.5625 0.03125 C 2.363281 0.03125 2.226562 -0.015625 2.15625 -0.109375 C 2.082031 -0.203125 2.035156 -0.28125 2.015625 -0.34375 C 1.972656 -0.488281 1.992188 -0.6875 2.078125 -0.9375 L 8.953125 -18.03125 C 9.285156 -18.90625 9.648438 -19.507812 10.046875 -19.84375 C 10.085938 -19.875 10.140625 -19.910156 10.203125 -19.953125 C 10.273438 -20.003906 10.34375 -20.046875 10.40625 -20.078125 C 10.90625 -20.421875 11.472656 -20.59375 12.109375 -20.59375 C 12.785156 -20.59375 13.394531 -20.390625 13.9375 -19.984375 C 14.476562 -19.578125 14.847656 -19.050781 15.046875 -18.40625 C 15.078125 -18.351562 15.101562 -18.296875 15.125 -18.234375 C 15.15625 -18.171875 15.179688 -18.101562 15.203125 -18.03125 Z M 15.203125 -18.03125 "/></g></g></g><g fill="#ffffff" fill-opacity="1"><g transform="translate(172.537605, 198.081421)"><g><path d="M 18.796875 -14.4375 L 18.796875 -14.28125 C 18.796875 -14.300781 18.796875 -14.3125 18.796875 -14.3125 C 18.796875 -14.320312 18.796875 -14.335938 18.796875 -14.359375 C 18.796875 -14.378906 18.796875 -14.390625 18.796875 -14.390625 C 18.796875 -14.398438 18.796875 -14.414062 18.796875 -14.4375 Z M 19.265625 -1.0625 C 19.367188 -0.925781 19.40625 -0.726562 19.375 -0.46875 C 19.320312 -0.132812 19.128906 0.03125 18.796875 0.03125 L 16.09375 0.03125 C 15.875 0.03125 15.695312 -0.0195312 15.5625 -0.125 C 15.519531 -0.15625 15.476562 -0.203125 15.4375 -0.265625 C 15.394531 -0.335938 15.347656 -0.40625 15.296875 -0.46875 L 10.828125 -8.390625 L 5.625 -8.390625 L 5.625 -0.84375 C 5.625 -0.457031 5.535156 -0.210938 5.359375 -0.109375 C 5.191406 -0.015625 5.050781 0.03125 4.9375 0.03125 L 2.6875 0.03125 C 2.570312 0.03125 2.421875 -0.015625 2.234375 -0.109375 C 2.054688 -0.210938 1.96875 -0.457031 1.96875 -0.84375 L 1.96875 -11.203125 C 1.96875 -11.578125 2.054688 -11.8125 2.234375 -11.90625 C 2.421875 -12 2.570312 -12.046875 2.6875 -12.046875 L 13.421875 -12.046875 C 14.046875 -12.046875 14.484375 -12.222656 14.734375 -12.578125 C 14.992188 -12.941406 15.125 -13.535156 15.125 -14.359375 C 15.125 -15.179688 14.992188 -15.773438 14.734375 -16.140625 C 14.484375 -16.492188 14.046875 -16.671875 13.421875 -16.671875 L 2.6875 -16.671875 C 2.570312 -16.671875 2.421875 -16.71875 2.234375 -16.8125 C 2.054688 -16.90625 1.96875 -17.140625 1.96875 -17.515625 L 1.96875 -19.46875 C 1.96875 -19.863281 2.054688 -20.101562 2.234375 -20.1875 C 2.421875 -20.28125 2.570312 -20.328125 2.6875 -20.328125 L 14.0625 -20.328125 C 15.757812 -20.328125 16.976562 -19.800781 17.71875 -18.75 C 18.425781 -17.726562 18.785156 -16.265625 18.796875 -14.359375 C 18.785156 -12.453125 18.425781 -10.988281 17.71875 -9.96875 C 17.09375 -9.113281 16.171875 -8.613281 14.953125 -8.46875 Z M 19.265625 -1.0625 "/></g></g></g><g fill="#ffffff" fill-opacity="1"><g transform="translate(191.021388, 198.081421)"><g><path d="M 19.015625 -20.328125 C 19.128906 -20.328125 19.273438 -20.28125 19.453125 -20.1875 C 19.640625 -20.101562 19.734375 -19.867188 19.734375 -19.484375 L 19.734375 -17.5625 C 19.734375 -17.15625 19.640625 -16.90625 19.453125 -16.8125 C 19.273438 -16.71875 19.128906 -16.671875 19.015625 -16.671875 L 12.6875 -16.671875 L 12.6875 -0.84375 C 12.6875 -0.457031 12.597656 -0.21875 12.421875 -0.125 C 12.242188 -0.0390625 12.097656 0 11.984375 0 L 9.71875 0 C 9.625 0 9.484375 -0.0390625 9.296875 -0.125 C 9.117188 -0.21875 9.03125 -0.457031 9.03125 -0.84375 L 9.03125 -16.671875 L 2.6875 -16.671875 C 2.570312 -16.671875 2.421875 -16.71875 2.234375 -16.8125 C 2.054688 -16.90625 1.96875 -17.15625 1.96875 -17.5625 L 1.96875 -19.484375 C 1.96875 -19.867188 2.054688 -20.101562 2.234375 -20.1875 C 2.421875 -20.28125 2.570312 -20.328125 2.6875 -20.328125 Z M 19.015625 -20.328125 "/></g></g></g><g fill="#ffffff" fill-opacity="1"><g transform="translate(209.850662, 198.081421)"><g/></g></g><g fill="#ffffff" fill-opacity="1"><g transform="translate(219.647791, 198.081421)"><g><path d="M 17.046875 -20.328125 C 17.148438 -20.328125 17.289062 -20.273438 17.46875 -20.171875 C 17.644531 -20.078125 17.734375 -19.84375 17.734375 -19.46875 L 17.734375 -17.5625 C 17.734375 -17.164062 17.644531 -16.914062 17.46875 -16.8125 C 17.289062 -16.71875 17.148438 -16.671875 17.046875 -16.671875 L 8.1875 -16.671875 C 7.632812 -16.671875 7.207031 -16.613281 6.90625 -16.5 C 6.613281 -16.40625 6.367188 -16.226562 6.171875 -15.96875 C 5.984375 -15.71875 5.84375 -15.351562 5.75 -14.875 C 5.71875 -14.644531 5.6875 -14.378906 5.65625 -14.078125 C 5.632812 -13.773438 5.625 -13.429688 5.625 -13.046875 L 5.625 -7.296875 C 5.625 -6.941406 5.632812 -6.609375 5.65625 -6.296875 C 5.6875 -5.984375 5.71875 -5.703125 5.75 -5.453125 C 5.800781 -5.222656 5.859375 -5.015625 5.921875 -4.828125 C 5.984375 -4.648438 6.066406 -4.492188 6.171875 -4.359375 C 6.367188 -4.097656 6.613281 -3.921875 6.90625 -3.828125 C 7.207031 -3.710938 7.632812 -3.65625 8.1875 -3.65625 L 17.046875 -3.65625 C 17.148438 -3.65625 17.289062 -3.601562 17.46875 -3.5 C 17.644531 -3.40625 17.734375 -3.164062 17.734375 -2.78125 L 17.734375 -0.84375 C 17.734375 -0.457031 17.644531 -0.210938 17.46875 -0.109375 C 17.289062 -0.015625 17.148438 0.03125 17.046875 0.03125 L 8.0625 0.03125 C 7 0.03125 6.070312 -0.109375 5.28125 -0.390625 C 4.519531 -0.660156 3.882812 -1.113281 3.375 -1.75 C 2.863281 -2.40625 2.503906 -3.210938 2.296875 -4.171875 C 2.179688 -4.660156 2.097656 -5.203125 2.046875 -5.796875 C 1.992188 -6.390625 1.96875 -7.03125 1.96875 -7.71875 L 1.96875 -12.609375 C 1.96875 -13.285156 1.992188 -13.914062 2.046875 -14.5 C 2.097656 -15.09375 2.179688 -15.628906 2.296875 -16.109375 C 2.503906 -17.097656 2.863281 -17.90625 3.375 -18.53125 C 3.851562 -19.15625 4.488281 -19.613281 5.28125 -19.90625 C 6.070312 -20.1875 7 -20.328125 8.0625 -20.328125 Z M 17.046875 -20.328125 "/></g></g></g><g fill="#ffffff" fill-opacity="1"><g transform="translate(236.478141, 198.081421)"><g><path d="M 15.203125 -18.03125 L 22.125 -0.9375 C 22.226562 -0.707031 22.253906 -0.507812 22.203125 -0.34375 C 22.191406 -0.28125 22.144531 -0.203125 22.0625 -0.109375 C 21.988281 -0.015625 21.851562 0.03125 21.65625 0.03125 L 19.015625 0.03125 C 18.671875 0.03125 18.4375 -0.148438 18.3125 -0.515625 L 12.1875 -15.796875 C 12.164062 -15.828125 12.15625 -15.84375 12.15625 -15.84375 L 12.0625 -15.84375 C 12.0625 -15.84375 12.054688 -15.835938 12.046875 -15.828125 C 12.046875 -15.816406 12.035156 -15.796875 12.015625 -15.765625 L 8.859375 -7.765625 L 11.921875 -7.765625 C 12.265625 -7.765625 12.5 -7.601562 12.625 -7.28125 L 13.515625 -5.078125 C 13.597656 -4.796875 13.566406 -4.554688 13.421875 -4.359375 C 13.285156 -4.128906 13.070312 -4.015625 12.78125 -4.015625 L 7.375 -4.015625 L 5.96875 -0.5 C 5.832031 -0.144531 5.601562 0.03125 5.28125 0.03125 L 2.5625 0.03125 C 2.363281 0.03125 2.226562 -0.015625 2.15625 -0.109375 C 2.082031 -0.203125 2.035156 -0.28125 2.015625 -0.34375 C 1.972656 -0.488281 1.992188 -0.6875 2.078125 -0.9375 L 8.953125 -18.03125 C 9.285156 -18.90625 9.648438 -19.507812 10.046875 -19.84375 C 10.085938 -19.875 10.140625 -19.910156 10.203125 -19.953125 C 10.273438 -20.003906 10.34375 -20.046875 10.40625 -20.078125 C 10.90625 -20.421875 11.472656 -20.59375 12.109375 -20.59375 C 12.785156 -20.59375 13.394531 -20.390625 13.9375 -19.984375 C 14.476562 -19.578125 14.847656 -19.050781 15.046875 -18.40625 C 15.078125 -18.351562 15.101562 -18.296875 15.125 -18.234375 C 15.15625 -18.171875 15.179688 -18.101562 15.203125 -18.03125 Z M 15.203125 -18.03125 "/></g></g></g><g fill="#ffffff" fill-opacity="1"><g transform="translate(257.824574, 198.081421)"><g><path d="M 14.0625 -20.328125 C 15.738281 -20.328125 16.945312 -19.800781 17.6875 -18.75 C 18.414062 -17.757812 18.78125 -16.269531 18.78125 -14.28125 L 18.78125 -14.4375 C 18.78125 -12.476562 18.414062 -10.988281 17.6875 -9.96875 C 16.945312 -8.925781 15.738281 -8.40625 14.0625 -8.40625 L 5.625 -8.390625 L 5.625 -0.84375 C 5.625 -0.457031 5.53125 -0.210938 5.34375 -0.109375 C 5.164062 -0.015625 5.03125 0.03125 4.9375 0.03125 L 2.671875 0.03125 C 2.566406 0.03125 2.421875 -0.015625 2.234375 -0.109375 C 2.054688 -0.210938 1.96875 -0.457031 1.96875 -0.84375 L 1.96875 -11.203125 C 1.96875 -11.578125 2.054688 -11.8125 2.234375 -11.90625 C 2.421875 -12 2.566406 -12.046875 2.671875 -12.046875 L 13.421875 -12.046875 C 14.046875 -12.046875 14.484375 -12.222656 14.734375 -12.578125 C 14.992188 -12.941406 15.125 -13.535156 15.125 -14.359375 C 15.125 -15.179688 14.992188 -15.773438 14.734375 -16.140625 C 14.484375 -16.492188 14.046875 -16.671875 13.421875 -16.671875 L 2.671875 -16.671875 C 2.566406 -16.671875 2.421875 -16.71875 2.234375 -16.8125 C 2.054688 -16.90625 1.96875 -17.140625 1.96875 -17.515625 L 1.96875 -19.46875 C 1.96875 -19.863281 2.054688 -20.101562 2.234375 -20.1875 C 2.421875 -20.28125 2.566406 -20.328125 2.671875 -20.328125 Z M 14.0625 -20.328125 "/></g></g></g><g fill="#ffffff" fill-opacity="1"><g transform="translate(275.691416, 198.081421)"><g><path d="M 4.9375 -20.328125 C 5.03125 -20.328125 5.164062 -20.273438 5.34375 -20.171875 C 5.53125 -20.078125 5.625 -19.84375 5.625 -19.46875 L 5.625 -0.84375 C 5.625 -0.457031 5.53125 -0.210938 5.34375 -0.109375 C 5.164062 -0.015625 5.03125 0.03125 4.9375 0.03125 L 2.671875 0.03125 C 2.566406 0.03125 2.421875 -0.015625 2.234375 -0.109375 C 2.054688 -0.210938 1.96875 -0.457031 1.96875 -0.84375 L 1.96875 -19.46875 C 1.96875 -19.84375 2.054688 -20.078125 2.234375 -20.171875 C 2.421875 -20.273438 2.566406 -20.328125 2.671875 -20.328125 Z M 4.9375 -20.328125 "/></g></g></g><g fill="#ffffff" fill-opacity="1"><g transform="translate(280.404888, 198.081421)"><g><path d="M 19.015625 -20.328125 C 19.128906 -20.328125 19.273438 -20.28125 19.453125 -20.1875 C 19.640625 -20.101562 19.734375 -19.867188 19.734375 -19.484375 L 19.734375 -17.5625 C 19.734375 -17.15625 19.640625 -16.90625 19.453125 -16.8125 C 19.273438 -16.71875 19.128906 -16.671875 19.015625 -16.671875 L 12.6875 -16.671875 L 12.6875 -0.84375 C 12.6875 -0.457031 12.597656 -0.21875 12.421875 -0.125 C 12.242188 -0.0390625 12.097656 0 11.984375 0 L 9.71875 0 C 9.625 0 9.484375 -0.0390625 9.296875 -0.125 C 9.117188 -0.21875 9.03125 -0.457031 9.03125 -0.84375 L 9.03125 -16.671875 L 2.6875 -16.671875 C 2.570312 -16.671875 2.421875 -16.71875 2.234375 -16.8125 C 2.054688 -16.90625 1.96875 -17.15625 1.96875 -17.5625 L 1.96875 -19.484375 C 1.96875 -19.867188 2.054688 -20.101562 2.234375 -20.1875 C 2.421875 -20.28125 2.570312 -20.328125 2.6875 -20.328125 Z M 19.015625 -20.328125 "/></g></g></g><g fill="#ffffff" fill-opacity="1"><g transform="translate(299.234171, 198.081421)"><g><path d="M 15.203125 -18.03125 L 22.125 -0.9375 C 22.226562 -0.707031 22.253906 -0.507812 22.203125 -0.34375 C 22.191406 -0.28125 22.144531 -0.203125 22.0625 -0.109375 C 21.988281 -0.015625 21.851562 0.03125 21.65625 0.03125 L 19.015625 0.03125 C 18.671875 0.03125 18.4375 -0.148438 18.3125 -0.515625 L 12.1875 -15.796875 C 12.164062 -15.828125 12.15625 -15.84375 12.15625 -15.84375 L 12.0625 -15.84375 C 12.0625 -15.84375 12.054688 -15.835938 12.046875 -15.828125 C 12.046875 -15.816406 12.035156 -15.796875 12.015625 -15.765625 L 8.859375 -7.765625 L 11.921875 -7.765625 C 12.265625 -7.765625 12.5 -7.601562 12.625 -7.28125 L 13.515625 -5.078125 C 13.597656 -4.796875 13.566406 -4.554688 13.421875 -4.359375 C 13.285156 -4.128906 13.070312 -4.015625 12.78125 -4.015625 L 7.375 -4.015625 L 5.96875 -0.5 C 5.832031 -0.144531 5.601562 0.03125 5.28125 0.03125 L 2.5625 0.03125 C 2.363281 0.03125 2.226562 -0.015625 2.15625 -0.109375 C 2.082031 -0.203125 2.035156 -0.28125 2.015625 -0.34375 C 1.972656 -0.488281 1.992188 -0.6875 2.078125 -0.9375 L 8.953125 -18.03125 C 9.285156 -18.90625 9.648438 -19.507812 10.046875 -19.84375 C 10.085938 -19.875 10.140625 -19.910156 10.203125 -19.953125 C 10.273438 -20.003906 10.34375 -20.046875 10.40625 -20.078125 C 10.90625 -20.421875 11.472656 -20.59375 12.109375 -20.59375 C 12.785156 -20.59375 13.394531 -20.390625 13.9375 -19.984375 C 14.476562 -19.578125 14.847656 -19.050781 15.046875 -18.40625 C 15.078125 -18.351562 15.101562 -18.296875 15.125 -18.234375 C 15.15625 -18.171875 15.179688 -18.101562 15.203125 -18.03125 Z M 15.203125 -18.03125 "/></g></g></g><g fill="#ffffff" fill-opacity="1"><g transform="translate(320.580604, 198.081421)"><g><path d="M 16.203125 -3.65625 C 16.316406 -3.65625 16.460938 -3.601562 16.640625 -3.5 C 16.816406 -3.40625 16.90625 -3.164062 16.90625 -2.78125 L 16.90625 -0.84375 C 16.90625 -0.457031 16.816406 -0.210938 16.640625 -0.109375 C 16.460938 -0.015625 16.316406 0.03125 16.203125 0.03125 L 8.0625 0.03125 C 6.976562 0.03125 6.054688 -0.109375 5.296875 -0.390625 C 4.523438 -0.660156 3.882812 -1.125 3.375 -1.78125 C 2.90625 -2.375 2.550781 -3.175781 2.3125 -4.1875 C 2.082031 -5.195312 1.96875 -6.375 1.96875 -7.71875 L 1.96875 -19.46875 C 1.96875 -19.863281 2.054688 -20.101562 2.234375 -20.1875 C 2.421875 -20.28125 2.570312 -20.328125 2.6875 -20.328125 L 4.953125 -20.328125 C 5.054688 -20.328125 5.195312 -20.28125 5.375 -20.1875 C 5.5625 -20.101562 5.65625 -19.863281 5.65625 -19.46875 L 5.65625 -7.296875 C 5.65625 -6.941406 5.660156 -6.609375 5.671875 -6.296875 C 5.691406 -5.984375 5.722656 -5.703125 5.765625 -5.453125 C 5.835938 -5.003906 5.976562 -4.640625 6.1875 -4.359375 C 6.351562 -4.097656 6.59375 -3.921875 6.90625 -3.828125 C 7.238281 -3.710938 7.664062 -3.65625 8.1875 -3.65625 Z M 16.203125 -3.65625 "/></g></g></g><g fill="#1b9e86" fill-opacity="1"><g transform="translate(157.698875, 214.155572)"><g><path d="M 2.734375 -6.8125 L 0.046875 -6.8125 L 0.046875 -8.40625 L 7.375 -8.40625 L 7.375 -6.8125 L 4.6875 -6.8125 L 4.6875 0 L 2.734375 0 Z M 2.734375 -6.8125 "/></g></g></g><g fill="#1b9e86" fill-opacity="1"><g transform="translate(170.376374, 214.155572)"><g><path d="M 7.5 -1.5625 L 7.5 0 L 1 0 L 1 -8.40625 L 7.34375 -8.40625 L 7.34375 -6.84375 L 2.921875 -6.84375 L 2.921875 -5.015625 L 6.828125 -5.015625 L 6.828125 -3.5 L 2.921875 -3.5 L 2.921875 -1.5625 Z M 7.5 -1.5625 "/></g></g></g><g fill="#1b9e86" fill-opacity="1"><g transform="translate(183.689877, 214.155572)"><g><path d="M 5.015625 0.140625 C 4.160156 0.140625 3.382812 -0.0390625 2.6875 -0.40625 C 2 -0.78125 1.457031 -1.296875 1.0625 -1.953125 C 0.664062 -2.617188 0.46875 -3.367188 0.46875 -4.203125 C 0.46875 -5.035156 0.664062 -5.78125 1.0625 -6.4375 C 1.457031 -7.09375 2 -7.609375 2.6875 -7.984375 C 3.382812 -8.359375 4.164062 -8.546875 5.03125 -8.546875 C 5.757812 -8.546875 6.414062 -8.414062 7 -8.15625 C 7.59375 -7.90625 8.085938 -7.539062 8.484375 -7.0625 L 7.234375 -5.90625 C 6.671875 -6.5625 5.96875 -6.890625 5.125 -6.890625 C 4.601562 -6.890625 4.140625 -6.773438 3.734375 -6.546875 C 3.328125 -6.316406 3.007812 -6 2.78125 -5.59375 C 2.550781 -5.1875 2.4375 -4.722656 2.4375 -4.203125 C 2.4375 -3.679688 2.550781 -3.21875 2.78125 -2.8125 C 3.007812 -2.40625 3.328125 -2.085938 3.734375 -1.859375 C 4.140625 -1.628906 4.601562 -1.515625 5.125 -1.515625 C 5.96875 -1.515625 6.671875 -1.847656 7.234375 -2.515625 L 8.484375 -1.359375 C 8.085938 -0.867188 7.59375 -0.492188 7 -0.234375 C 6.40625 0.015625 5.742188 0.140625 5.015625 0.140625 Z M 5.015625 0.140625 "/></g></g></g><g fill="#1b9e86" fill-opacity="1"><g transform="translate(197.747383, 214.155572)"><g><path d="M 8.703125 -8.40625 L 8.703125 0 L 6.75 0 L 6.75 -3.4375 L 2.9375 -3.4375 L 2.9375 0 L 1 0 L 1 -8.40625 L 2.9375 -8.40625 L 2.9375 -5.09375 L 6.75 -5.09375 L 6.75 -8.40625 Z M 8.703125 -8.40625 "/></g></g></g><g fill="#1b9e86" fill-opacity="1"><g transform="translate(212.704887, 214.155572)"><g><path d="M 8.703125 -8.40625 L 8.703125 0 L 7.109375 0 L 2.921875 -5.09375 L 2.921875 0 L 1 0 L 1 -8.40625 L 2.609375 -8.40625 L 6.78125 -3.296875 L 6.78125 -8.40625 Z M 8.703125 -8.40625 "/></g></g></g><g fill="#1b9e86" fill-opacity="1"><g transform="translate(227.662394, 214.155572)"><g><path d="M 5.0625 0.140625 C 4.1875 0.140625 3.398438 -0.046875 2.703125 -0.421875 C 2.003906 -0.796875 1.457031 -1.3125 1.0625 -1.96875 C 0.664062 -2.632812 0.46875 -3.378906 0.46875 -4.203125 C 0.46875 -5.023438 0.664062 -5.765625 1.0625 -6.421875 C 1.457031 -7.085938 2.003906 -7.609375 2.703125 -7.984375 C 3.398438 -8.359375 4.1875 -8.546875 5.0625 -8.546875 C 5.9375 -8.546875 6.71875 -8.359375 7.40625 -7.984375 C 8.101562 -7.609375 8.648438 -7.085938 9.046875 -6.421875 C 9.453125 -5.765625 9.65625 -5.023438 9.65625 -4.203125 C 9.65625 -3.378906 9.453125 -2.632812 9.046875 -1.96875 C 8.648438 -1.3125 8.101562 -0.796875 7.40625 -0.421875 C 6.71875 -0.046875 5.9375 0.140625 5.0625 0.140625 Z M 5.0625 -1.515625 C 5.5625 -1.515625 6.007812 -1.628906 6.40625 -1.859375 C 6.8125 -2.085938 7.125 -2.40625 7.34375 -2.8125 C 7.570312 -3.21875 7.6875 -3.679688 7.6875 -4.203125 C 7.6875 -4.722656 7.570312 -5.1875 7.34375 -5.59375 C 7.125 -6 6.8125 -6.316406 6.40625 -6.546875 C 6.007812 -6.773438 5.5625 -6.890625 5.0625 -6.890625 C 4.5625 -6.890625 4.113281 -6.773438 3.71875 -6.546875 C 3.320312 -6.316406 3.007812 -6 2.78125 -5.59375 C 2.550781 -5.1875 2.4375 -4.722656 2.4375 -4.203125 C 2.4375 -3.679688 2.550781 -3.21875 2.78125 -2.8125 C 3.007812 -2.40625 3.320312 -2.085938 3.71875 -1.859375 C 4.113281 -1.628906 4.5625 -1.515625 5.0625 -1.515625 Z M 5.0625 -1.515625 "/></g></g></g><g fill="#1b9e86" fill-opacity="1"><g transform="translate(243.051904, 214.155572)"><g><path d="M 1 -8.40625 L 2.9375 -8.40625 L 2.9375 -1.578125 L 7.15625 -1.578125 L 7.15625 0 L 1 0 Z M 1 -8.40625 "/></g></g></g><g fill="#1b9e86" fill-opacity="1"><g transform="translate(255.561406, 214.155572)"><g><path d="M 5.0625 0.140625 C 4.1875 0.140625 3.398438 -0.046875 2.703125 -0.421875 C 2.003906 -0.796875 1.457031 -1.3125 1.0625 -1.96875 C 0.664062 -2.632812 0.46875 -3.378906 0.46875 -4.203125 C 0.46875 -5.023438 0.664062 -5.765625 1.0625 -6.421875 C 1.457031 -7.085938 2.003906 -7.609375 2.703125 -7.984375 C 3.398438 -8.359375 4.1875 -8.546875 5.0625 -8.546875 C 5.9375 -8.546875 6.71875 -8.359375 7.40625 -7.984375 C 8.101562 -7.609375 8.648438 -7.085938 9.046875 -6.421875 C 9.453125 -5.765625 9.65625 -5.023438 9.65625 -4.203125 C 9.65625 -3.378906 9.453125 -2.632812 9.046875 -1.96875 C 8.648438 -1.3125 8.101562 -0.796875 7.40625 -0.421875 C 6.71875 -0.046875 5.9375 0.140625 5.0625 0.140625 Z M 5.0625 -1.515625 C 5.5625 -1.515625 6.007812 -1.628906 6.40625 -1.859375 C 6.8125 -2.085938 7.125 -2.40625 7.34375 -2.8125 C 7.570312 -3.21875 7.6875 -3.679688 7.6875 -4.203125 C 7.6875 -4.722656 7.570312 -5.1875 7.34375 -5.59375 C 7.125 -6 6.8125 -6.316406 6.40625 -6.546875 C 6.007812 -6.773438 5.5625 -6.890625 5.0625 -6.890625 C 4.5625 -6.890625 4.113281 -6.773438 3.71875 -6.546875 C 3.320312 -6.316406 3.007812 -6 2.78125 -5.59375 C 2.550781 -5.1875 2.4375 -4.722656 2.4375 -4.203125 C 2.4375 -3.679688 2.550781 -3.21875 2.78125 -2.8125 C 3.007812 -2.40625 3.320312 -2.085938 3.71875 -1.859375 C 4.113281 -1.628906 4.5625 -1.515625 5.0625 -1.515625 Z M 5.0625 -1.515625 "/></g></g></g><g fill="#1b9e86" fill-opacity="1"><g transform="translate(270.950916, 214.155572)"><g><path d="M 6.671875 -4.328125 L 8.453125 -4.328125 L 8.453125 -0.921875 C 7.992188 -0.578125 7.460938 -0.3125 6.859375 -0.125 C 6.265625 0.0507812 5.660156 0.140625 5.046875 0.140625 C 4.179688 0.140625 3.398438 -0.0390625 2.703125 -0.40625 C 2.003906 -0.78125 1.457031 -1.296875 1.0625 -1.953125 C 0.664062 -2.617188 0.46875 -3.367188 0.46875 -4.203125 C 0.46875 -5.035156 0.664062 -5.78125 1.0625 -6.4375 C 1.457031 -7.09375 2.003906 -7.609375 2.703125 -7.984375 C 3.410156 -8.359375 4.207031 -8.546875 5.09375 -8.546875 C 5.820312 -8.546875 6.484375 -8.421875 7.078125 -8.171875 C 7.679688 -7.921875 8.191406 -7.5625 8.609375 -7.09375 L 7.359375 -5.9375 C 6.753906 -6.570312 6.03125 -6.890625 5.1875 -6.890625 C 4.644531 -6.890625 4.164062 -6.773438 3.75 -6.546875 C 3.332031 -6.328125 3.007812 -6.007812 2.78125 -5.59375 C 2.550781 -5.1875 2.4375 -4.722656 2.4375 -4.203125 C 2.4375 -3.679688 2.550781 -3.21875 2.78125 -2.8125 C 3.007812 -2.40625 3.332031 -2.085938 3.75 -1.859375 C 4.164062 -1.628906 4.632812 -1.515625 5.15625 -1.515625 C 5.71875 -1.515625 6.222656 -1.632812 6.671875 -1.875 Z M 6.671875 -4.328125 "/></g></g></g><g fill="#1b9e86" fill-opacity="1"><g transform="translate(285.464427, 214.155572)"><g><path d="M 5.03125 -2.96875 L 5.03125 0 L 3.078125 0 L 3.078125 -3 L -0.171875 -8.40625 L 1.890625 -8.40625 L 4.140625 -4.671875 L 6.390625 -8.40625 L 8.296875 -8.40625 Z M 5.03125 -2.96875 "/></g></g></g></svg>